<svg xmlns="http://www.w3.org/2000/svg" viewBox="0 0 50 50"><path d="M17.165 45.02c-.188-1.7-.358-4.31.075-6.167.39-1.677 2.521-10.688 2.521-10.688s-.643-1.288-.643-3.19c0-2.99 1.732-5.222 3.89-5.222 1.835 0 2.72 1.378 2.72 3.028 0 1.846-1.174 4.603-1.781 7.158-.507 2.141 1.073 3.887 3.183 3.887 3.821 0 6.759-4.03 6.759-9.846 0-5.147-3.698-8.747-8.98-8.747-6.117 0-9.707 4.589-9.707 9.331 0 1.848.71 3.829 1.6 4.907.175.214.2.4.149.616-.163.68-.525 2.14-.597 2.439-.094.394-.312.476-.719.287-2.686-1.25-4.364-5.176-4.364-8.33 0-6.781 4.926-13.01 14.206-13.01 7.459 0 13.255 5.313 13.255 12.417 0 7.41-4.673 13.373-11.157 13.373-2.179 0-4.226-1.132-4.927-2.469 0 0-1.078 4.105-1.34 5.111-.486 1.867-1.795 4.21-2.674 5.637-.343.248-1.372.098-1.47-.522z"/></svg>